<svg viewBox="0 0 800 600" xmlns="http://www.w3.org/2000/svg">
  <!-- Background Elements -->
  <rect width="800" height="600" fill="#f8fafc" />
  
  <!-- Abstract Background Shapes -->
  <circle cx="150" cy="100" r="80" fill="#eef2ff" />
  <circle cx="700" cy="500" r="120" fill="#eef2ff" />
  <path d="M600,50 Q750,150 650,250 T600,400 T400,500 T200,450 T150,300 T300,150 T600,50" fill="#f1f5f9" stroke="none" />
  
  <!-- Main "404" Text -->
  <text x="400" y="200" font-family="Arial, sans-serif" font-size="150" font-weight="bold" fill="#3366cc" text-anchor="middle" dominant-baseline="middle">404</text>
  
  <!-- Broken Page Illustration -->
  <g transform="translate(400, 350)">
    <!-- Main Page -->
    <path d="M-120,-100 L80,-100 L80,100 L-120,100 Z" fill="white" stroke="#7b93c1" stroke-width="3" />
    
    <!-- Torn Edge -->
    <path d="M80,-100 L80,100 Q60,90 70,70 Q90,50 60,30 Q40,10 60,-10 Q90,-30 60,-50 Q40,-60 70,-80 Q90,-105 80,-100" fill="white" stroke="#7b93c1" stroke-width="3" />
    
    <!-- Missing Page Piece (with shadow) -->
    <path d="M90,-90 L150,-90 L150,90 L90,90 Q115,70 95,50 Q75,30 100,10 Q120,-10 95,-30 Q75,-45 100,-70 Q120,-90 90,-90" fill="#e6e6e6" stroke="#7b93c1" stroke-width="3" transform="translate(10, 0)" />
    
    <!-- Page Content Lines -->
    <line x1="-90" y1="-60" x2="50" y2="-60" stroke="#7b93c1" stroke-width="5" stroke-linecap="round" />
    <line x1="-90" y1="-20" x2="50" y2="-20" stroke="#7b93c1" stroke-width="5" stroke-linecap="round" />
    <line x1="-90" y1="20" x2="50" y2="20" stroke="#7b93c1" stroke-width="5" stroke-linecap="round" />
    <line x1="-90" y1="60" x2="0" y2="60" stroke="#7b93c1" stroke-width="5" stroke-linecap="round" />
  </g>
  
  <!-- Magnifying Glass -->
  <g transform="translate(580, 350) rotate(-20)">
    <!-- Glass -->
    <circle cx="0" cy="0" r="40" fill="white" stroke="#3366cc" stroke-width="8" />
    
    <!-- Handle -->
    <line x1="30" y1="30" x2="75" y2="75" stroke="#3366cc" stroke-width="8" stroke-linecap="round" />
    
    <!-- Cross Inside -->
    <line x1="-15" y1="0" x2="15" y2="0" stroke="#5580d5" stroke-width="6" stroke-linecap="round" />
  </g>
  
  <!-- Text -->
  <text x="400" y="450" font-family="Arial, sans-serif" font-size="28" font-weight="bold" fill="#1E293B" text-anchor="middle">Page Not Found</text>
  <text x="400" y="490" font-family="Arial, sans-serif" font-size="18" fill="#64748B" text-anchor="middle">The page you are looking for doesn't exist or has been moved.</text>
  
  <!-- Uploaded SVG Icon (from paste.txt) -->
  <g transform="translate(200, 350) scale(0.6)">
    <g transform="translate(0.000000,189.000000) scale(0.100000,-0.100000)" fill="#7b93c1" stroke="none">
      <path d="M1560 1375 c0 -2 17 -13 38 -24 53 -27 109 -87 128 -138 9 -23 20 -40 25 -37 12 7 -15 69 -48 112 -36 48 -143 113 -143 87z"/>
      <path d="M1550 1292 c0 -5 11 -14 25 -20 22 -10 78 -76 88 -105 2 -7 7 -9 11 -5 12 11 -20 62 -63 101 -40 36 -61 46 -61 29z"/>
      <path d="M1282 1274 c-12 -8 -29 -28 -37 -43 -8 -16 -28 -34 -44 -41 -78 -32 -84 -157 -10 -195 38 -20 295 -21 342 -1 64 26 92 106 62 170 -23 48 -57 70 -111 72 -30 1 -53 10 -74 28 -37 30 -93 35 -128 10z"/>
    </g>
  </g>
</svg>