<svg viewBox="0 0 800 600" xmlns="http://www.w3.org/2000/svg">
  <!-- Background Elements -->
  <rect width="800" height="600" fill="#f8fafc" />
  
  <!-- Abstract Background Shapes -->
  <circle cx="150" cy="100" r="80" fill="#eef2ff" />
  <circle cx="700" cy="500" r="120" fill="#eef2ff" />
  <path d="M600,50 Q750,150 650,250 T600,400 T400,500 T200,450 T150,300 T300,150 T600,50" fill="#f1f5f9" stroke="none" />
  
  <!-- Main "404" Text -->
  <text x="400" y="200" font-family="Arial, sans-serif" font-size="150" font-weight="bold" fill="#F08080" text-anchor="middle" dominant-baseline="middle">404</text>
  
  <!-- Broken Page Illustration -->
  <g transform="translate(400, 350)">
    <!-- Main Page -->
    <path d="M-120,-100 L80,-100 L80,100 L-120,100 Z" fill="white" stroke="#CBD5E1" stroke-width="3" />
    
    <!-- Torn Edge -->
    <path d="M80,-100 L80,100 Q60,90 70,70 Q90,50 60,30 Q40,10 60,-10 Q90,-30 60,-50 Q40,-60 70,-80 Q90,-105 80,-100" fill="white" stroke="#CBD5E1" stroke-width="3" />
    
    <!-- Missing Page Piece (with shadow) -->
    <path d="M90,-90 L150,-90 L150,90 L90,90 Q115,70 95,50 Q75,30 100,10 Q120,-10 95,-30 Q75,-45 100,-70 Q120,-90 90,-90" fill="#e2e8f0" stroke="#CBD5E1" stroke-width="3" transform="translate(10, 0)" />
    
    <!-- Page Content Lines -->
    <line x1="-90" y1="-60" x2="50" y2="-60" stroke="#CBD5E1" stroke-width="5" stroke-linecap="round" />
    <line x1="-90" y1="-20" x2="50" y2="-20" stroke="#CBD5E1" stroke-width="5" stroke-linecap="round" />
    <line x1="-90" y1="20" x2="50" y2="20" stroke="#CBD5E1" stroke-width="5" stroke-linecap="round" />
    <line x1="-90" y1="60" x2="0" y2="60" stroke="#CBD5E1" stroke-width="5" stroke-linecap="round" />
  </g>
  
  <!-- Magnifying Glass -->
  <g transform="translate(580, 350) rotate(-20)">
    <!-- Glass -->
    <circle cx="0" cy="0" r="40" fill="white" stroke="#F08080" stroke-width="8" />
    
    <!-- Handle -->
    <line x1="30" y1="30" x2="75" y2="75" stroke="#F08080" stroke-width="8" stroke-linecap="round" />
    
    <!-- Cross Inside -->
    <line x1="-15" y1="0" x2="15" y2="0" stroke="#EF4444" stroke-width="6" stroke-linecap="round" />
  </g>
  
  <!-- Text -->
  <text x="400" y="450" font-family="Arial, sans-serif" font-size="28" font-weight="bold" fill="#1E293B" text-anchor="middle">Page Not Found</text>
  <text x="400" y="490" font-family="Arial, sans-serif" font-size="18" fill="#64748B" text-anchor="middle">The page you are looking for doesn't exist or has been moved.</text>
</svg>