<?xml version="1.0" standalone="no"?>
<!DOCTYPE svg PUBLIC "-//W3C//DTD SVG 20010904//EN"
 "http://www.w3.org/TR/2001/REC-SVG-20010904/DTD/svg10.dtd">
<svg version="1.0" xmlns="http://www.w3.org/2000/svg"
 width="192px" height="192px" viewBox="0 0 300.000000 189.000000"
 preserveAspectRatio="xMidYMid meet">
<metadata>
Created by potrace 1.10, written by Peter Selinger 2001-2011
</metadata>
<g transform="translate(0.000000,189.000000) scale(0.100000,-0.100000)"
fill="#3366cc" stroke="none">
<path d="M1560 1375 c0 -2 17 -13 38 -24 53 -27 109 -87 128 -138 9 -23 20
-40 25 -37 12 7 -15 69 -48 112 -36 48 -143 113 -143 87z"/>
<path d="M1550 1292 c0 -5 11 -14 25 -20 22 -10 78 -76 88 -105 2 -7 7 -9 11
-5 12 11 -20 62 -63 101 -40 36 -61 46 -61 29z"/>
<path d="M1282 1274 c-12 -8 -29 -28 -37 -43 -8 -16 -28 -34 -44 -41 -78 -32
-84 -157 -10 -195 38 -20 295 -21 342 -1 64 26 92 106 62 170 -23 48 -57 70
-111 72 -30 1 -53 10 -74 28 -37 30 -93 35 -128 10z m126 -31 c22 -22 34 -26
70 -24 37 2 47 -2 77 -32 29 -29 35 -42 35 -77 0 -34 -6 -48 -34 -76 l-34 -34
-155 0 c-150 0 -157 1 -184 24 -21 19 -28 33 -28 64 0 46 17 70 63 89 17 7 32
19 32 27 0 7 11 25 25 40 34 37 95 37 133 -1z"/>
<path d="M360 784 c-34 -74 -34 -74 -21 -74 5 0 12 8 16 18 7 25 78 23 83 -2
2 -9 10 -16 18 -16 12 0 13 3 0 23 -7 12 -21 43 -31 70 -10 26 -22 47 -27 47
-5 0 -22 -30 -38 -66z m55 -1 c5 -20 3 -23 -19 -23 -30 0 -30 0 -14 35 12 27
22 24 33 -12z"/>
<path d="M480 796 c0 -63 16 -86 61 -86 22 0 32 6 39 26 13 33 13 114 0 114
-5 0 -10 -22 -10 -48 0 -59 -20 -92 -47 -76 -13 8 -19 26 -21 68 -4 72 -22 74
-22 2z"/>
<path d="M606 839 c3 -6 15 -9 25 -6 17 5 19 -1 19 -59 0 -36 4 -64 10 -64 6
0 10 27 10 60 0 53 2 60 19 60 11 0 23 5 26 10 4 6 -17 10 -55 10 -42 0 -59
-3 -54 -11z"/>
<path d="M741 824 c-12 -15 -21 -34 -21 -44 0 -34 39 -70 75 -70 36 0 75 36
75 70 0 34 -39 70 -75 70 -24 0 -39 -7 -54 -26z m100 -16 c23 -43 -17 -97 -61
-83 -45 14 -50 88 -8 104 30 11 56 3 69 -21z"/>
<path d="M890 780 c0 -84 18 -94 22 -12 l3 57 21 -55 c12 -30 25 -55 30 -55 5
0 18 25 29 55 l20 55 3 -57 c4 -82 22 -72 22 12 0 87 -18 93 -50 18 l-23 -53
-25 53 c-37 74 -52 69 -52 -18z"/>
<path d="M1087 785 c-30 -73 -31 -75 -18 -75 5 0 11 8 13 18 7 24 64 21 82 -4
8 -10 17 -16 20 -13 8 7 -51 139 -62 139 -5 0 -20 -29 -35 -65z m63 -17 c0 -5
-11 -8 -25 -8 -27 0 -31 10 -14 42 11 21 12 21 25 -3 7 -13 13 -27 14 -31z"/>
<path d="M1190 840 c0 -5 11 -10 25 -10 24 0 25 -3 25 -60 0 -37 4 -60 11 -60
7 0 10 21 7 60 -3 57 -2 60 20 60 12 0 22 5 22 10 0 6 -25 10 -55 10 -30 0
-55 -4 -55 -10z"/>
<path d="M1320 780 l0 -70 45 0 c25 0 45 5 45 10 0 6 -16 10 -35 10 -31 0 -35
3 -35 26 0 23 3 25 30 19 19 -4 30 -3 30 4 0 6 -13 11 -30 11 -23 0 -30 4 -30
20 0 16 7 20 35 20 19 0 35 5 35 10 0 6 -20 10 -45 10 l-45 0 0 -70z"/>
<path d="M1490 780 c0 -40 4 -70 10 -70 6 0 10 17 10 38 l1 37 20 -24 c11 -13
24 -31 29 -40 5 -9 11 -13 15 -9 4 3 -1 18 -11 33 -17 25 -17 28 -1 37 20 11
22 39 5 56 -7 7 -27 12 -45 12 l-33 0 0 -70z m68 33 c-2 -10 -13 -19 -26 -21
-17 -3 -22 2 -22 17 0 16 6 21 26 21 19 0 25 -5 22 -17z"/>
<path d="M1610 780 l0 -70 45 0 c25 0 45 5 45 10 0 6 -15 10 -34 10 -22 0 -36
6 -40 16 -10 25 4 37 35 30 16 -3 29 -1 29 4 0 5 -15 10 -32 12 -22 2 -34 9
-36 21 -3 14 4 17 37 17 23 0 41 5 41 10 0 6 -20 10 -45 10 l-45 0 0 -70z"/>
<path d="M1721 780 c1 -38 5 -70 10 -70 5 0 9 14 9 30 0 23 5 30 19 30 36 0
51 12 51 40 0 30 -15 40 -61 40 l-28 0 0 -70z m74 30 c0 -9 -11 -16 -27 -18
-23 -3 -28 1 -28 18 0 17 5 21 28 18 16 -2 27 -9 27 -18z"/>
<path d="M1851 824 c-27 -35 -27 -65 2 -92 33 -31 80 -29 106 4 12 15 21 34
21 44 0 34 -39 70 -75 70 -24 0 -39 -7 -54 -26z m100 -16 c16 -29 2 -67 -28
-79 -51 -19 -95 40 -60 83 25 32 70 29 88 -4z"/>
<path d="M2000 780 c0 -40 4 -70 10 -70 6 0 10 16 10 35 0 42 22 39 40 -6 7
-16 19 -29 27 -29 11 0 9 8 -8 31 -20 29 -21 32 -6 41 22 12 22 54 1 62 -9 3
-29 6 -45 6 l-29 0 0 -70z m70 30 c0 -15 -7 -20 -25 -20 -18 0 -25 5 -25 20 0
15 7 20 25 20 18 0 25 -5 25 -20z"/>
<path d="M2105 840 c3 -5 15 -10 26 -10 17 0 19 -7 19 -60 0 -33 4 -60 10 -60
6 0 10 28 10 64 0 58 2 64 19 59 10 -3 22 0 25 6 5 8 -12 11 -54 11 -38 0 -59
-4 -55 -10z"/>
<path d="M2230 780 c0 -40 4 -70 10 -70 6 0 10 30 10 70 0 40 -4 70 -10 70 -6
0 -10 -30 -10 -70z"/>
<path d="M2280 780 c0 -84 18 -94 22 -13 l3 57 38 -57 c20 -31 42 -57 47 -57
6 0 10 30 10 70 0 46 -4 70 -11 70 -8 0 -10 -17 -5 -56 3 -30 3 -53 -2 -50 -4
2 -24 27 -42 55 -48 71 -60 67 -60 -19z"/>
<path d="M2450 830 c-45 -45 -11 -120 53 -120 42 0 55 13 49 50 -3 24 -9 30
-28 30 -13 0 -24 -4 -24 -10 0 -5 9 -10 20 -10 27 0 27 -37 0 -45 -32 -10 -70
20 -70 55 0 39 39 67 70 50 23 -13 36 -8 25 9 -11 19 -73 13 -95 -9z"/>
<path d="M1217 643 c-6 -12 -1 -62 6 -70 4 -3 7 12 7 35 0 40 -4 51 -13 35z"/>
<path d="M1360 616 c0 -20 5 -36 10 -36 6 0 10 13 10 29 0 17 -4 33 -10 36 -6
4 -10 -8 -10 -29z"/>
<path d="M1480 624 c0 -22 -3 -26 -10 -14 -5 8 -10 10 -10 4 0 -16 27 -37 34
-26 6 10 0 51 -9 60 -3 3 -5 -8 -5 -24z"/>
<path d="M1632 615 c0 -22 2 -32 5 -22 5 21 33 23 33 2 0 -29 15 -15 16 15 1
17 -3 30 -7 30 -5 0 -9 -4 -9 -10 0 -17 -28 -11 -33 8 -3 9 -5 -1 -5 -23z"/>
<path d="M1746 642 c-10 -10 -6 -62 5 -62 5 0 7 5 4 10 -10 16 7 11 19 -6 10
-13 12 -10 13 19 1 26 -4 36 -17 40 -11 3 -21 2 -24 -1z m31 -18 c-3 -3 -12
-4 -19 -1 -8 3 -5 6 6 6 11 1 17 -2 13 -5z"/>
<path d="M1112 615 c-7 -14 -12 -27 -12 -28 0 -1 14 -2 30 -2 17 0 30 1 30 2
0 9 -25 53 -30 53 -4 0 -12 -11 -18 -25z m28 1 c0 -3 -4 -8 -10 -11 -5 -3 -10
-1 -10 4 0 6 5 11 10 11 6 0 10 -2 10 -4z"/>
<path d="M1433 610 c-1 -17 2 -30 7 -30 6 0 10 6 10 14 0 8 3 21 6 30 4 10 1
16 -7 16 -8 0 -15 -12 -16 -30z"/>
</g>
</svg>